<?xml version="1.0"?>
<svg xmlns="http://www.w3.org/2000/svg" xmlns:xlink="http://www.w3.org/1999/xlink" version="1.1" xml:space="preserve">
  <defs>
    <symbol id="email" width="100%" height="100%" viewBox="0 0 20 20" fill="none">
      <path fill-rule="evenodd" clip-rule="evenodd" d="M2.64306 4.30968C1.66675 5.286 1.66675 6.85734 1.66675 10C1.66675 13.1427 1.66675 14.7141 2.64306 15.6904C3.61937 16.6667 5.19072 16.6667 8.33341 16.6667H11.6667C14.8094 16.6667 16.3808 16.6667 17.3571 15.6904C18.3334 14.7141 18.3334 13.1427 18.3334 10C18.3334 6.85734 18.3334 5.286 17.3571 4.30968C16.3808 3.33337 14.8094 3.33337 11.6667 3.33337H8.33341C5.19072 3.33337 3.61937 3.33337 2.64306 4.30968ZM15.4802 6.26659C15.7012 6.53176 15.6654 6.92587 15.4002 7.14685L13.5698 8.67218C12.8312 9.28773 12.2325 9.78664 11.7041 10.1265C11.1537 10.4805 10.6176 10.7041 10.0001 10.7041C9.38252 10.7041 8.84648 10.4805 8.29606 10.1265C7.76768 9.78664 7.16901 9.28773 6.43038 8.67219L4.59997 7.14685C4.33479 6.92587 4.29897 6.53176 4.51994 6.26659C4.74092 6.00142 5.13502 5.96559 5.4002 6.18657L7.19928 7.6858C7.97674 8.33369 8.51652 8.78205 8.97223 9.07515C9.41337 9.35887 9.71252 9.4541 10.0001 9.4541C10.2876 9.4541 10.5868 9.35887 11.0279 9.07515C11.4836 8.78205 12.0234 8.33369 12.8009 7.6858L14.6 6.18657C14.8651 5.96559 15.2592 6.00142 15.4802 6.26659Z" fill="currentColor" />
    </symbol>
    <symbol id="document" width="100%" height="100%" viewBox="0 0 20 20" fill="none">
      <path fill-rule="evenodd" clip-rule="evenodd" d="M3.47631 2.64294C2.5 3.61925 2.5 5.1906 2.5 8.33329V11.6666C2.5 14.8093 2.5 16.3807 3.47631 17.357C4.45262 18.3333 6.02397 18.3333 9.16667 18.3333H10.8333C13.976 18.3333 15.5474 18.3333 16.5237 17.357C17.5 16.3807 17.5 14.8093 17.5 11.6666V8.33329C17.5 5.1906 17.5 3.61925 16.5237 2.64294C15.5474 1.66663 13.976 1.66663 10.8333 1.66663H9.16667C6.02397 1.66663 4.45262 1.66663 3.47631 2.64294ZM6.04167 6.66663C6.04167 6.32145 6.32149 6.04163 6.66667 6.04163H13.3333C13.6785 6.04163 13.9583 6.32145 13.9583 6.66663C13.9583 7.0118 13.6785 7.29163 13.3333 7.29163H6.66667C6.32149 7.29163 6.04167 7.0118 6.04167 6.66663ZM6.04167 9.99996C6.04167 9.65478 6.32149 9.37496 6.66667 9.37496H13.3333C13.6785 9.37496 13.9583 9.65478 13.9583 9.99996C13.9583 10.3451 13.6785 10.625 13.3333 10.625H6.66667C6.32149 10.625 6.04167 10.3451 6.04167 9.99996ZM6.66667 12.7083C6.32149 12.7083 6.04167 12.9881 6.04167 13.3333C6.04167 13.6785 6.32149 13.9583 6.66667 13.9583H10.8333C11.1785 13.9583 11.4583 13.6785 11.4583 13.3333C11.4583 12.9881 11.1785 12.7083 10.8333 12.7083H6.66667Z" fill="currentColor" />

    </symbol>
    <symbol id="point-on-map" width="100%" height="100%" viewBox="0 0 20 20" fill="none">
      <path d="M17.5 14.0241V9.30186C17.5 8.43221 17.5 7.99738 17.2641 7.67002C17.0735 7.40558 16.7676 7.26503 16.2222 7.07581C16.1107 8.41431 15.6674 9.78123 14.9713 10.9776C14.1607 12.3706 12.957 13.6161 11.4142 14.2891C10.515 14.6814 9.48498 14.6814 8.58585 14.2891C7.04303 13.6161 5.83932 12.3706 5.02874 10.9776C4.50071 10.0702 4.11817 9.06459 3.91551 8.04773C3.59673 8.00077 3.35208 8.02486 3.14097 8.14265C3.05674 8.18964 2.97823 8.24623 2.90701 8.31128C2.5 8.68302 2.5 9.37422 2.5 10.7566V14.8647C2.5 15.7344 2.5 16.1692 2.73595 16.4966C2.97189 16.8239 3.38441 16.9614 4.20943 17.2364L4.52907 17.343C5.84322 17.781 6.50029 18.0001 7.1724 18.0013C7.37483 18.0017 7.57702 17.9873 7.77736 17.9583C8.44253 17.862 9.06742 17.5496 10.3172 16.9247C11.2749 16.4458 11.7538 16.2064 12.2625 16.0953C12.441 16.0563 12.6219 16.0291 12.804 16.0139C13.3229 15.9704 13.8464 16.0577 14.8934 16.2322C15.9546 16.4091 16.4851 16.4975 16.8725 16.275C17.004 16.1995 17.1207 16.1006 17.2169 15.9833C17.5 15.6377 17.5 15.0999 17.5 14.0241Z" fill="currentColor" />
      <path fill-rule="evenodd" clip-rule="evenodd" d="M10 1.66663C7.23858 1.66663 5 3.79339 5 6.41688C5 9.01982 6.59583 12.0572 9.08567 13.1434C9.66609 13.3966 10.3339 13.3966 10.9143 13.1434C13.4042 12.0572 15 9.01982 15 6.41688C15 3.79339 12.7614 1.66663 10 1.66663ZM10 8.33329C10.9205 8.33329 11.6667 7.5871 11.6667 6.66663C11.6667 5.74615 10.9205 4.99996 10 4.99996C9.07953 4.99996 8.33333 5.74615 8.33333 6.66663C8.33333 7.5871 9.07953 8.33329 10 8.33329Z" fill="currentColor" />

    </symbol>
    <symbol id="location" width="100%" height="100%" viewBox="0 0 20 20" fill="none">
      <path fill-rule="evenodd" clip-rule="evenodd" d="M9.99992 1.66663C6.31802 1.66663 3.33325 5.00211 3.33325 8.74996C3.33325 12.4684 5.46102 16.5103 8.78081 18.062C9.5547 18.4237 10.4451 18.4237 11.219 18.062C14.5388 16.5103 16.6666 12.4684 16.6666 8.74996C16.6666 5.00211 13.6818 1.66663 9.99992 1.66663ZM9.99992 9.99996C10.9204 9.99996 11.6666 9.25377 11.6666 8.33329C11.6666 7.41282 10.9204 6.66663 9.99992 6.66663C9.07944 6.66663 8.33325 7.41282 8.33325 8.33329C8.33325 9.25377 9.07944 9.99996 9.99992 9.99996Z" fill="currentColor" />

    </symbol>
    <symbol id="phone" width="100%" height="100%" viewBox="0 0 20 20" fill="none">
      <path d="M12.9635 12.1231L12.5839 12.5227C12.5839 12.5227 11.6818 13.4725 9.21927 10.8799C6.75676 8.28736 7.65892 7.33756 7.65892 7.33756L7.89793 7.08593C8.48673 6.46604 8.54223 5.4708 8.02853 4.74425L6.97771 3.25801C6.3419 2.35875 5.1133 2.23996 4.38454 3.0072L3.07654 4.38428C2.71519 4.76471 2.47304 5.25788 2.50241 5.80495C2.57753 7.20455 3.1756 10.2159 6.5128 13.7293C10.0518 17.4552 13.3724 17.6033 14.7302 17.4692C15.1597 17.4269 15.5333 17.1952 15.8343 16.8783L17.0181 15.632C17.8171 14.7908 17.5918 13.3485 16.5694 12.76L14.9774 11.8436C14.306 11.4572 13.4881 11.5707 12.9635 12.1231Z" fill="currentColor" />
      <path d="M11.0497 1.56673C11.1048 1.22599 11.4269 0.994843 11.7677 1.05001C11.7888 1.05404 11.8566 1.06673 11.8922 1.07465C11.9633 1.09048 12.0625 1.11486 12.1862 1.15089C12.4335 1.22292 12.779 1.34159 13.1937 1.53171C14.0239 1.91233 15.1287 2.57817 16.2752 3.72467C17.4217 4.87117 18.0876 5.97602 18.4682 6.80625C18.6583 7.22093 18.777 7.56643 18.849 7.81375C18.885 7.93742 18.9094 8.03661 18.9253 8.10772C18.9332 8.14327 18.939 8.17182 18.943 8.19291L18.9478 8.21891C19.003 8.55965 18.7739 8.89508 18.4332 8.95025C18.0934 9.00525 17.7733 8.77523 17.7168 8.43608C17.7151 8.42698 17.7103 8.40251 17.7051 8.37944C17.6949 8.33329 17.6771 8.2601 17.6489 8.16331C17.5925 7.96969 17.4945 7.68192 17.3319 7.32719C17.0071 6.6186 16.4229 5.64011 15.3913 4.60856C14.3598 3.577 13.3813 2.99284 12.6727 2.66798C12.318 2.50535 12.0302 2.40741 11.8366 2.35101C11.7398 2.32282 11.6181 2.2949 11.572 2.28462C11.2328 2.2281 10.9946 1.9065 11.0497 1.56673Z" fill="currentColor" />
      <path fill-rule="evenodd" clip-rule="evenodd" d="M11.2382 4.44128C11.333 4.10939 11.679 3.9172 12.0108 4.01203L11.8391 4.61298C12.0108 4.01203 12.0108 4.01203 12.0108 4.01203L12.012 4.01238L12.0133 4.01275L12.0161 4.01356L12.0226 4.01549L12.0391 4.02062C12.0516 4.02464 12.0673 4.02987 12.086 4.03651C12.1234 4.04979 12.1729 4.06868 12.2336 4.09468C12.355 4.14671 12.5209 4.22706 12.7246 4.34766C13.1325 4.58906 13.6893 4.99004 14.3435 5.64418C14.9976 6.29833 15.3986 6.85515 15.64 7.26303C15.7606 7.46679 15.841 7.63268 15.893 7.75408C15.919 7.81476 15.9379 7.86422 15.9512 7.90165C15.9578 7.92036 15.963 7.93605 15.967 7.94861L15.9722 7.9651L15.9741 7.97156L15.9749 7.97434L15.9753 7.97562C15.9753 7.97562 15.9756 7.97682 15.3747 8.14852L15.9756 7.97682C16.0705 8.30871 15.8783 8.65464 15.5464 8.74947C15.2173 8.84349 14.8744 8.65536 14.7762 8.32864L14.7731 8.31966C14.7687 8.30714 14.7595 8.28249 14.7441 8.24648C14.7132 8.17454 14.6573 8.05685 14.5643 7.89969C14.3785 7.58573 14.0429 7.11136 13.4596 6.52807C12.8763 5.94477 12.4019 5.60918 12.088 5.42338C11.9308 5.33036 11.8131 5.27445 11.7412 5.24361C11.7052 5.22818 11.6805 5.21899 11.668 5.21455L11.659 5.21147C11.3323 5.11323 11.1442 4.77036 11.2382 4.44128Z" fill="currentColor" />

    </symbol>
    <symbol id="menu" width="100%" height="100%" viewBox="0 0 32 32" fill="none">
      <path d="M26.6667 9.33331L5.33342 9.33331" stroke="currentColor" stroke-width="2" stroke-linecap="round" />
      <path d="M26.6667 16L5.33342 16" stroke="currentColor" stroke-width="2" stroke-linecap="round" />
      <path d="M26.6667 22.6667L5.33342 22.6667" stroke="currentColor" stroke-width="2" stroke-linecap="round" />

    </symbol>
    <symbol id="arrow-right" width="100%" height="100%" viewBox="0 0 15 10" fill="none">
      <path d="M13 5L13.7071 4.29289L14.4142 5L13.7071 5.70711L13 5ZM1 6C0.447715 6 0 5.55228 0 5C0 4.44772 0.447715 4 1 4V6ZM9.70711 0.292893L13.7071 4.29289L12.2929 5.70711L8.29289 1.70711L9.70711 0.292893ZM13.7071 5.70711L9.70711 9.70711L8.29289 8.29289L12.2929 4.29289L13.7071 5.70711ZM13 6H1V4H13V6Z" fill="currentColor" />
    </symbol>
    <symbol id="arrow-left" width="100%" height="100%" viewBox="0 0 15 10" fill="none">
      <path d="M2 5L1.29289 4.29289L0.585786 5L1.29289 5.70711L2 5ZM14 6C14.5523 6 15 5.55228 15 5C15 4.44772 14.5523 4 14 4V6ZM5.29289 0.292893L1.29289 4.29289L2.70711 5.70711L6.70711 1.70711L5.29289 0.292893ZM1.29289 5.70711L5.29289 9.70711L6.70711 8.29289L2.70711 4.29289L1.29289 5.70711ZM2 6H14V4H2V6Z" fill="currentColor" />
    </symbol>
    <symbol id="gal-ochka" width="100%" height="100%" viewBox="0 0 12 10" fill="none">
      <path d="M6.23497 8.79946C5.9649 9.16602 5.54433 9.3913 5.0896 9.41369C4.63487 9.43632 4.19445 9.25304 3.88975 8.91464L1.15929 5.88456C0.725328 5.40328 0.763876 4.6614 1.24515 4.22744C1.72689 3.79348 2.46831 3.83226 2.90227 4.31377L4.83407 6.45771C4.8627 6.48956 4.90425 6.50664 4.94695 6.50456C4.98988 6.50249 5.02912 6.48102 5.05475 6.44686L9.02546 1.0614C9.40979 0.539728 10.1443 0.428699 10.6662 0.813259C11.1876 1.19782 11.2984 1.93232 10.9139 2.45376L6.23497 8.79946Z" fill="currentColor" />
    </symbol>
    <symbol id="to-right" width="100%" height="100%" viewBox="0 0 8 14">
      <path d="M5.63663 7.00019L1.15148 2.51504C0.7935 2.15706 0.7935 1.57666 1.15148 1.21868C1.50946 0.8607 2.08986 0.8607 2.44784 1.21868L7.58118 6.35201C7.93916 6.70999 7.93916 7.29039 7.58118 7.64838L2.44784 12.7817C2.08986 13.1397 1.50946 13.1397 1.15148 12.7817C0.7935 12.4237 0.7935 11.8433 1.15148 11.4853L5.63663 7.00019Z" fill="currentColor" />
    </symbol>
    <symbol id="to-left" width="100%" height="100%" viewBox="0 0 8 14" fill="none">
      <path d="M2.36337 7.00019L6.84852 2.51504C7.2065 2.15706 7.2065 1.57666 6.84852 1.21868C6.49054 0.8607 5.91014 0.8607 5.55216 1.21868L0.418823 6.35201C0.0608425 6.70999 0.0608425 7.29039 0.418823 7.64838L5.55216 12.7817C5.91014 13.1397 6.49054 13.1397 6.84852 12.7817C7.2065 12.4237 7.2065 11.8433 6.84852 11.4853L2.36337 7.00019Z" fill="currentColor" />
    </symbol>
    <symbol id="to-down" width="100%" height="100%" viewBox="0 0 16 16" fill="none">
      <path d="M8 10.094L11.7067 6.23123C12.0026 5.92292 12.4823 5.92292 12.7781 6.23123C13.074 6.53954 13.074 7.03941 12.7781 7.34772L8.53569 11.7688C8.23983 12.0771 7.76016 12.0771 7.46431 11.7688L3.22189 7.34772C2.92604 7.03941 2.92604 6.53954 3.22189 6.23123C3.51774 5.92292 3.99741 5.92292 4.29326 6.23123L8 10.094Z" fill="currentColor" />
    </symbol>
    <symbol id="play" width="100%" height="100%" viewBox="0 0 32 38" fill="none">
      <path d="M5.27275 38C4.93519 38 4.61146 37.8332 4.37278 37.5363C4.13409 37.2393 4 36.8366 4 36.4167V1.58307C4.00004 1.30794 4.05771 1.03756 4.16732 0.79859C4.27694 0.559623 4.43472 0.360315 4.62511 0.220312C4.81551 0.0803081 5.03194 0.00444103 5.25308 0.000189119C5.47422 -0.00406279 5.69243 0.0634472 5.88621 0.196064L31.3411 17.6129C31.5407 17.7495 31.7071 17.9503 31.823 18.1943C31.9389 18.4383 32 18.7165 32 18.9999C32 19.2833 31.9389 19.5615 31.823 19.8054C31.7071 20.0494 31.5407 20.2502 31.3411 20.3869L5.88621 37.8037C5.69829 37.9324 5.48727 37.9999 5.27275 38Z" fill="currentColor" />
    </symbol>
    <symbol id="cross" width="100%" height="100%" viewBox="0 0 32 32" fill="none">
      <path d="M23.085 8.08496L8.00002 23.1699" stroke="currentColor" stroke-width="2" stroke-linecap="round" />
      <path d="M23.085 23.085L8.00002 8.00002" stroke="currentColor" stroke-width="2" stroke-linecap="round" />

    </symbol>
    <symbol id="eye" width="100%" height="100%" viewBox="0 0 24 24" fill="none">
      <path fill-rule="evenodd" clip-rule="evenodd" d="M20.77 12C20.77 11.6412 20.576 11.4056 20.1878 10.9343C18.7677 9.21014 15.6355 6 11.9998 6C8.36403 6 5.23183 9.21014 3.81174 10.9343C3.42357 11.4056 3.22949 11.6412 3.22949 12C3.22949 12.3588 3.42357 12.5944 3.81173 13.0657C5.23183 14.7899 8.36403 18 11.9998 18C15.6355 18 18.7677 14.7899 20.1878 13.0657C20.576 12.5944 20.77 12.3588 20.77 12ZM11.9998 15C13.6566 15 14.9998 13.6569 14.9998 12C14.9998 10.3431 13.6566 9 11.9998 9C10.3429 9 8.99977 10.3431 8.99977 12C8.99977 13.6569 10.3429 15 11.9998 15Z" fill="currentColor" />
    </symbol>
    <symbol id="eye-hidden" width="100%" height="100%" viewBox="0 0 24 24" fill="none">
      <path fill-rule="evenodd" clip-rule="evenodd" d="M18.2368 15.1157C19.0481 14.3833 19.7135 13.6416 20.1878 13.0657C20.576 12.5944 20.77 12.3588 20.77 12C20.77 11.6412 20.576 11.4056 20.1878 10.9343C18.7677 9.21014 15.6355 6 11.9998 6C11.1603 6 10.3476 6.17115 9.57671 6.45563L12.1236 9.00251C13.682 9.06577 14.934 10.3178 14.9973 11.8762L18.2368 15.1157ZM9.39284 10.5144C9.1427 10.9524 8.99977 11.4595 8.99977 12C8.99977 13.6569 10.3429 15 11.9998 15C12.5403 15 13.0474 14.8571 13.4854 14.6069L15.787 16.9085C14.6358 17.5555 13.3526 18 11.9998 18C8.36403 18 5.23183 14.7899 3.81173 13.0657C3.42357 12.5944 3.22949 12.3588 3.22949 12C3.22949 11.6412 3.42357 11.4056 3.81174 10.9343C4.48516 10.1167 5.5436 8.96489 6.85818 7.97974L9.39284 10.5144Z" fill="currentColor" />
      <path d="M5 2L21 18" stroke="currentColor" stroke-width="2" />
    </symbol>
    <symbol id="user" width="100%" height="100%" viewBox="0 0 20 20" fill="none">
      <path d="M16.3765 17.0042C16.8371 16.9082 17.1115 16.4262 16.8826 16.015C16.3779 15.1086 15.5829 14.3122 14.5659 13.7052C13.2561 12.9235 11.6512 12.4998 10.0002 12.4998C8.34918 12.4998 6.7443 12.9235 5.43447 13.7052C4.41744 14.3122 3.62242 15.1086 3.11777 16.015C2.88886 16.4262 3.16322 16.9082 3.6239 17.0042C7.82957 17.8807 12.1708 17.8807 16.3765 17.0042Z" fill="currentColor" />
      <circle cx="10.0002" cy="6.66642" r="4.16667" fill="currentColor" />
    </symbol>
    <symbol id="copy" width="100%" height="100%" viewBox="0 0 20 20" fill="none">
      <path d="M12.7 1.66669H9.45487C7.98466 1.66667 6.82015 1.66666 5.90878 1.78969C4.97084 1.9163 4.21169 2.18306 3.613 2.78415C3.0143 3.38525 2.74861 4.14745 2.62251 5.08916C2.49998 6.00419 2.49999 7.17337 2.5 8.64947V13.5141C2.5 14.7708 3.26663 15.8478 4.35597 16.2994C4.2999 15.5415 4.29995 14.4781 4.3 13.5934L4.3 9.49801L4.3 9.4187C4.29994 8.35064 4.29989 7.43038 4.39857 6.69345C4.50433 5.90367 4.74282 5.14662 5.35442 4.53257C5.96601 3.91852 6.72003 3.67906 7.50665 3.57288C8.24064 3.4738 9.15722 3.47385 10.221 3.47391L10.3 3.47392H12.7L12.779 3.47391C13.8428 3.47385 14.7574 3.4738 15.4914 3.57288C15.0523 2.45651 13.968 1.66669 12.7 1.66669Z" fill="currentColor" />
      <path d="M5.5 9.4978C5.5 7.22598 5.5 6.09006 6.20294 5.38429C6.90589 4.67853 8.03726 4.67853 10.3 4.67853H12.7C14.9627 4.67853 16.0941 4.67853 16.7971 5.38429C17.5 6.09006 17.5 7.22598 17.5 9.49781V13.5139C17.5 15.7857 17.5 16.9216 16.7971 17.6274C16.0941 18.3331 14.9627 18.3331 12.7 18.3331H10.3C8.03726 18.3331 6.90589 18.3331 6.20294 17.6274C5.5 16.9216 5.5 15.7857 5.5 13.5139V9.4978Z" fill="currentColor" />
    </symbol>
    <symbol id="star" width="100%" height="100%" viewBox="0 0 25 24" fill="none">
      <path d="M12.5 17.75L6.32796 20.995L7.50696 14.122L2.50696 9.25495L9.40696 8.25495L12.493 2.00195L15.579 8.25495L22.479 9.25495L17.479 14.122L18.658 20.995L12.5 17.75Z" fill="currentColor" />
    </symbol>
    <symbol id="like" width="100%" height="100%" viewBox="0 0 64 64" fill="none">
      <path d="M54.0523 43.3732L55.9338 32.4938C56.4037 29.7765 54.314 27.2912 51.5594 27.2912H37.7432C36.3738 27.2912 35.3311 26.0621 35.5527 24.7093L37.3199 13.9238C37.607 12.1716 37.525 10.3786 37.0792 8.66005C36.7098 7.23635 35.6114 6.09318 34.1668 5.62911L33.7803 5.50492C32.9072 5.22446 31.9543 5.28972 31.1312 5.68636C30.2252 6.12294 29.5624 6.91927 29.3167 7.86635L28.0481 12.7566C27.6445 14.3126 27.0566 15.8145 26.2985 17.2336C25.1909 19.3071 23.4784 20.9665 21.6984 22.5005L17.8617 25.8066C16.78 26.7388 16.2119 28.1348 16.335 29.5584L18.5007 54.6055C18.6994 56.9029 20.6202 58.6666 22.9236 58.6666H35.3199C44.6034 58.6666 52.5261 52.1984 54.0523 43.3732Z" fill="currentColor" />
      <path fill-rule="evenodd" clip-rule="evenodd" d="M7.91377 25.2935C8.98381 25.2473 9.9003 26.0523 9.99257 27.1194L12.5835 57.0834C12.7499 59.0082 11.2338 60.6671 9.29788 60.6671C7.47437 60.6671 6 59.1878 6 57.3678V27.2917C6 26.2206 6.84374 25.3397 7.91377 25.2935Z" fill="currentColor" />

    </symbol>
    <symbol id="dislike" width="100%" height="100%" viewBox="0 0 64 64" fill="none">
      <path d="M54.0523 20.6268L55.9338 31.5061C56.4037 34.2234 54.314 36.7088 51.5594 36.7088H37.7432C36.3738 36.7088 35.3311 37.9379 35.5527 39.2907L37.3199 50.0762C37.607 51.8284 37.525 53.6213 37.0792 55.3399C36.7098 56.7636 35.6114 57.9068 34.1668 58.3708L33.7803 58.495C32.9072 58.7755 31.9543 58.7102 31.1312 58.3136C30.2252 57.877 29.5624 57.0807 29.3167 56.1336L28.0481 51.2433C27.6445 49.6873 27.0566 48.1854 26.2985 46.7663C25.1909 44.6928 23.4784 43.0334 21.6984 41.4994L17.8617 38.1933C16.78 37.2612 16.2119 35.8651 16.335 34.4416L18.5007 9.39444C18.6994 7.097 20.6202 5.3333 22.9236 5.3333H35.3199C44.6034 5.3333 52.5261 11.8016 54.0523 20.6268Z" fill="currentColor" />
      <path fill-rule="evenodd" clip-rule="evenodd" d="M7.91377 38.7065C8.98381 38.7527 9.9003 37.9477 9.99257 36.8806L12.5835 6.91658C12.7499 4.9918 11.2338 3.33288 9.29788 3.33288C7.47437 3.33288 6 4.81219 6 6.63224V36.7083C6 37.7794 6.84374 38.6603 7.91377 38.7065Z" fill="currentColor" />

    </symbol>
    <!--  -->
    <!--  -->
    <!--  -->
  </defs>
</svg>